HIERARCHY
ROOT ui
{
	 OFFSET 0 0 0
	 CHANNELS 3 XPosition YPosition Z Position
	 EndSite
	 {
	 OFFSET 0 -1 0
	 }
}
ROOT li
{
	 OFFSET 0 0 0
	 CHANNELS 3 XPosition YPosition Z Position
	 EndSite
	 {
	 OFFSET 0 -1 0
	 }
}
ROOT ul
{
	 OFFSET 0 0 0
	 CHANNELS 3 XPosition YPosition Z Position
	 EndSite
	 {
	 OFFSET 0 -1 0
	 }
}
ROOT ll
{
	 OFFSET 0 0 0
	 CHANNELS 3 XPosition YPosition Z Position
	 EndSite
	 {
	 OFFSET 0 -1 0
	 }
}
ROOT tt
{
	 OFFSET 0 0 0
	 CHANNELS 3 XPosition YPosition Z Position
	 EndSite
	 {
	 OFFSET 0 -1 0
	 }
}
ROOT tb
{
	 OFFSET 0 0 0
	 CHANNELS 3 XPosition YPosition Z Position
	 EndSite
	 {
	 OFFSET 0 -1 0
	 }
}
ROOT td
{
	 OFFSET 0 0 0
	 CHANNELS 3 XPosition YPosition Z Position
	 EndSite
	 {
	 OFFSET 0 -1 0
	 }
}
ROOT v
{
	 OFFSET 0 0 0
	 CHANNELS 3 XPosition YPosition Z Position
	 EndSite
	 {
	 OFFSET 0 -1 0
	 }
}
ROOT bn
{
	 OFFSET 0 0 0
	 CHANNELS 3 XPosition YPosition Z Position
	 EndSite
	 {
	 OFFSET 0 -1 0
	 }
}
MOTION
Frames: 32
Frame Time: 0.002
-0.0033020288944244384	6.879749894142151E-4	0		0.4138905029296875	-2.458147705078125	0		-0.9422435913085937	0.18047047424316406	0		-0.8340880126953125	-2.557895263671875	0		1.3730048828125	-0.7789940795898438	0		3.133609619140625	-0.08829925537109375	0		4.597537109375	-0.10542337036132812	0		5.50742626953125	0.048365631103515626	0		0.01184479808807373	5.94936474609375	0		
-0.07024706268310547	-0.006034200191497803	0		0.44715655517578123	-2.461397705078125	0		-0.9381434936523437	0.18007806396484374	0		-0.7938114624023438	-2.563844970703125	0		1.366759521484375	-0.7661243896484375	0		3.16903759765625	-0.0753438720703125	0		4.60966357421875	-0.10938729095458985	0		5.5264453125	0.04270188903808594	0		0.013272043228149413	5.94941357421875	0		
0.004984594821929931	7.821199893951416E-4	0		0.4244403381347656	-2.45766845703125	0		-0.9341220703125	0.17970024108886717	0		-0.7905690307617188	-2.566122314453125	0		1.3789583740234375	-0.78058154296875	0		3.132994873046875	-0.08416533660888671	0		4.601818359375	-0.10702549743652344	0		5.51153173828125	0.04560129165649414	0		-0.11969754028320312	5.9297412109375	0		
-0.04808183670043945	-0.001221086025238037	0		0.4554267578125	-2.4628515625	0		-0.935291748046875	0.1754212646484375	0		-0.7874808349609375	-2.56838671875	0		1.3305035400390626	-0.76603955078125	0		3.153005615234375	-0.08297580718994141	0		4.60584130859375	-0.10491683959960937	0		5.52033740234375	0.039034751892089846	0		-0.13629983520507813	5.9340380859375	0		
-0.03442005157470703	-0.010344886779785156	0		0.4074150695800781	-2.4547490234375	0		-0.9264968872070313	0.17899333190917968	0		-0.8045792846679688	-2.569316650390625	0		1.3485106201171875	-0.7736329956054687	0		3.1628955078125	-0.0786562957763672	0		4.6076611328125	-0.10484169769287109	0		5.53410986328125	0.0403116340637207	0		-0.0990087890625	5.93645703125	0		
-0.05069794845581055	-0.0029916579723358156	0		0.4700284423828125	-2.455431396484375	0		-0.9080604248046875	0.17243231201171874	0		-0.7938182983398437	-2.56368798828125	0		1.358544921875	-0.7661145629882813	0		3.17567333984375	-0.06843519592285156	0		4.6174345703125	-0.09497645568847657	0		5.52698095703125	0.06082429504394531	0		0.033534069061279294	5.96042041015625	0		
-0.03322446823120117	0.0028288021087646484	0		0.44537887573242185	-2.454750244140625	0		-0.9196524047851562	0.17835789489746093	0		-0.7674158935546875	-2.563280517578125	0		1.3980869140625	-0.775073974609375	0		3.131920166015625	-0.07741567993164063	0		4.61676318359375	-0.09904642486572265	0		5.531080078125	0.04603670120239258	0		-0.11392591857910156	5.92874658203125	0		
-0.021213676452636717	-0.0062629499435424806	0		0.5002948913574219	-2.4642890625	0		-0.91657177734375	0.1780707550048828	0		-0.7653496704101562	-2.565481201171875	0		1.3564957275390626	-0.7758335571289062	0		3.1830751953125	-0.07791635131835938	0		4.61994580078125	-0.0972837371826172	0		5.52934375	0.05721125030517578	0		-0.12813621520996094	5.91798193359375	0		
-0.027172807693481446	0.002912429094314575	0		0.4491328125	-2.4582646484375	0		-0.9137262573242187	0.17780662536621095	0		-0.7276312866210938	-2.57118603515625	0		1.39859423828125	-0.780877197265625	0		3.174908447265625	-0.08360175323486328	0		4.62288623046875	-0.09563256072998047	0		5.537099609375	0.05010533905029297	0		-0.1310436248779297	5.93404638671875	0		
0.024434341430664062	-0.0017383370399475097	0		0.48054550170898436	-2.46146435546875	0		-0.9111134033203125	0.17756707763671875	0		-0.7861590576171875	-2.572485107421875	0		1.36258935546875	-0.77482177734375	0		3.18380322265625	-0.06861675262451172	0		4.62967138671875	-0.08815400695800782	0		5.5438662109375	0.05987685775756836	0		-0.1302767333984375	5.9340576171875	0		
-0.01902513313293457	0.005963003158569336	0		0.4618517761230469	-2.45096240234375	0		-0.90467236328125	0.18129707336425782	0		-0.7528388671875	-2.564080078125	0		1.41027978515625	-0.7729903564453126	0		3.16815185546875	-0.07537042236328124	0		4.62805224609375	-0.09267561340332031	0		5.53730126953125	0.06269406127929687	0		-0.11066219329833984	5.92881005859375	0		
0.03312663269042969	0.00133378005027771	0		0.4787393798828125	-2.449970947265625	0		-0.9065629272460938	0.17716476440429688	0		-0.7868886108398437	-2.560721923828125	0		1.3707325439453124	-0.76997900390625	0		3.2023681640625	-0.07589266204833985	0		4.6302900390625	-0.09136681365966796	0		5.5536044921875	0.07205705261230469	0		0.008099948883056641	5.93922705078125	0		
-0.017863733291625977	0.003111475944519043	0		0.4912130126953125	-2.45892626953125	0		-0.9046146850585938	0.17700146484375	0		-0.7133797607421875	-2.5698056640625	0		1.411843505859375	-0.7751033935546875	0		3.1634091796875	-0.07249542236328126	0		4.64430322265625	-0.09032752990722656	0		5.54737841796875	0.058592830657958984	0		-0.12565316009521485	5.91908544921875	0		
-0.020141679763793944	-7.775419950485229E-4	0		0.46355157470703123	-2.45735986328125	0		-0.9079312744140625	0.17292808532714843	0		-0.7859862670898438	-2.565915283203125	0		1.3687686767578124	-0.7761341552734375	0		3.1652001953125	-0.0717288055419922	0		4.6389931640625	-0.09713816070556641	0		5.54811376953125	0.05790382766723633	0		-0.12420986175537109	5.91810595703125	0		
-0.014526266098022461	0.0032292649745941163	0		0.4676329040527344	-2.455230224609375	0		-0.8904813232421875	0.1666024169921875	0		-0.7350167846679687	-2.57464404296875	0		1.4155098876953125	-0.774380859375	0		3.220799560546875	-0.0697326889038086	0		4.64465380859375	-0.0901989974975586	0		5.55376904296875	0.06702478790283203	0		-0.12564891815185547	5.9321689453125	0		
-2.4345999956130982E-4	-0.0028761579990386962	0		0.47552200317382814	-2.448160888671875	0		-0.8850990600585937	0.17045469665527344	0		-0.7531809692382813	-2.573456787109375	0		1.38111474609375	-0.7656051025390626	0		3.1762919921875	-0.05950642776489258	0		4.6411337890625	-0.08124249267578125	0		5.5551181640625	0.06808050537109375	0		-0.1083879165649414	5.9289921875	0		
-0.008958018302917481	0.006310822963714599	0		0.4999913940429688	-2.455313720703125	0		-0.898878662109375	0.17656442260742186	0		-0.7394886474609375	-2.56466748046875	0		1.4213406982421875	-0.7708163452148438	0		3.174244873046875	-0.07690079498291015	0		4.63415380859375	-0.09334127807617187	0		5.54729150390625	0.07013851165771484	0		-0.1091470947265625	5.930048828125	0		
-0.037999908447265626	0.0037426390647888183	0		0.472333740234375	-2.454822998046875	0		-0.8979093627929687	0.17649591064453124	0		-0.740157958984375	-2.566688232421875	0		1.4194061279296875	-0.7735202026367187	0		3.175249755859375	-0.0763953628540039	0		4.6351611328125	-0.09263013458251954	0		5.548275390625	0.07097832489013672	0		0.01013955020904541	5.9396044921875	0		
0.04866702651977539	-0.010271880149841308	0		0.4994102783203125	-2.460032470703125	0		-0.9021456909179687	0.17249885559082032	0		-0.7410282592773437	-2.568702880859375	0		1.420337158203125	-0.7732908935546875	0		3.181007080078125	-0.08300872802734376	0		4.64009326171875	-0.08505044555664062	0		5.55808837890625	0.0706104736328125	0		-0.12684129333496094	5.9343525390625	0		
-0.03647211456298828	0.0038311109542846678	0		0.4474632263183594	-2.4522841796875	0		-0.972416259765625	0.17731463623046875	0		-0.73802880859375	-2.566763916015625	0		1.42111572265625	-0.7730907592773437	0		3.19195458984375	-0.06273999786376953	0		4.649771484375	-0.08660812377929687	0		5.5587744140625	0.07126340484619141	0		-0.1267967758178711	5.93438330078125	0		
0.04408082580566406	0.0018896199464797975	0		0.5062648620605469	-2.452911865234375	0		-0.891819091796875	0.18028326416015625	0		-0.7331636352539063	-2.562848876953125	0		1.38282470703125	-0.7674462280273437	0		3.193373779296875	-0.07541118621826172	0		4.653375	-0.0841653060913086	0		5.55035205078125	0.0729391632080078	0		-0.12679299163818358	5.93440625	0		
-0.02654515266418457	-0.005225727081298828	0		0.4759126892089844	-2.454472412109375	0		-0.89541650390625	0.17628060913085938	0		-0.7345087280273438	-2.564862548828125	0		1.4253270263671876	-0.7698153076171875	0		3.213904541015625	-0.07036439514160156	0		4.6377646484375	-0.09056139373779297	0		5.560810546875	0.07330320739746093	0		0.024397249221801757	5.95159326171875	0		
0.04088548278808594	-0.0010228320360183717	0		0.5044263916015626	-2.4577646484375	0		-0.8950541381835937	0.17622563171386718	0		-0.735972900390625	-2.5668818359375	0		1.4227216796875	-0.7726669921875	0		3.178227294921875	-0.07469105529785157	0		4.655048828125	-0.09842160034179688	0		5.55118115234375	0.07383299255371094	0		-0.10891059112548829	5.931203125	0		
-0.0388106689453125	-7.018200308084488E-5	0		0.4748896789550781	-2.456380615234375	0		-0.8998143310546876	0.1722252655029297	0		-0.7375407104492188	-2.568908203125	0		1.420019775390625	-0.7765487060546875	0		3.16254296875	-0.07330990600585938	0		4.643353515625	-0.09799732971191406	0		5.55636669921875	0.06510997772216796	0		-0.108001220703125	5.92917919921875	0		
0.05130935668945313	-0.010162699699401855	0		0.4772730712890625	-2.454401123046875	0		-0.8945425415039062	0.17609835815429686	0		-0.7513050537109375	-2.5797998046875	0		1.381355224609375	-0.7710331420898437	0		3.2118837890625	-0.06475151062011719	0		4.63667578125	-0.09069670104980469	0		5.5657744140625	0.0802667236328125	0		-0.09097876739501953	5.93694970703125	0		
-0.021422447204589842	-0.0023323979377746582	0		0.483637451171875	-2.4474892578125	0		-0.8794423217773437	0.16984738159179688	0		-0.7188898315429687	-2.56924755859375	0		1.429634765625	-0.765581298828125	0		3.20307861328125	-0.06354763412475586	0		4.659845703125	-0.09181258392333984	0		5.57086767578125	0.07340323638916016	0		-0.1270673828125	5.93533642578125	0		
0.04881356811523437	0.005788197040557861	0		0.5067661437988281	-2.454795654296875	0		-0.8901943969726562	0.1798976287841797	0		-0.7675631103515625	-2.559742919921875	0		1.3847733154296875	-0.7670542602539062	0		3.163099609375	-0.073022216796875	0		4.63900830078125	-0.08946578979492187	0		5.55690625	0.06569725036621094	0		-0.1432523193359375	5.92447119140625	0		
-0.025228494644165038	-0.0054005680084228515	0		0.5058816223144531	-2.457835693359375	0		-0.8941509399414063	0.17586111450195313	0		-0.7344948120117187	-2.567212890625	0		1.42382373046875	-0.7725457153320312	0		3.18410009765625	-0.08126035308837891	0		4.64703369140625	-0.09551686096191406	0		5.55210546875	0.07481952667236329	0		-0.1092253646850586	5.9300029296875	0		
-0.011113080978393555	-6.407179832458496E-4	0		0.5039507751464843	-2.459879150390625	0		-0.8940960693359375	0.1757738037109375	0		-0.77339794921875	-2.56683837890625	0		1.4238922119140625	-0.772599853515625	0		3.16817138671875	-0.08010084533691406	0		4.64406884765625	-0.09748934936523437	0		5.54805615234375	0.06587226104736328	0		-0.12719271850585936	5.935138671875	0		
-0.038086986541748045	-4.063200056552887E-4	0		0.47805126953125	-2.45465380859375	0		-0.8891321411132812	0.17062615966796876	0		-0.734360107421875	-2.567385986328125	0		1.4239212646484376	-0.7726742553710938	0		3.19034765625	-0.06742414093017578	0		4.6391884765625	-0.08948502349853515	0		5.56117333984375	0.07367037963867187	0		-0.09314962768554688	5.93965380859375	0		
0.045940948486328126	0.001514320969581604	0		0.4800707702636719	-2.452767822265625	0		-0.8900275268554687	0.17954812622070312	0		-0.7563744506835938	-2.56821630859375	0		1.3849805908203126	-0.7673067626953125	0		3.172253173828125	-0.07530475616455078	0		4.64409228515625	-0.09763788604736329	0		5.55218408203125	0.07468086242675781	0		-0.10926209259033202	5.9297529296875	0		
-0.007061613082885742	0.0030441000461578368	0		0.507008544921875	-2.455183837890625	0		-0.894091064453125	0.17550801086425782	0		-0.7323783569335938	-2.565587646484375	0		1.42389501953125	-0.772870849609375	0		3.224289794921875	-0.07103633880615234	0		4.652001953125	-0.10386148071289063	0		5.562166015625	0.07442635345458984	0		-0.14330320739746094	5.924060546875	0		
